Coordinates
version=1
nRows=9
nColumns=63
inDegrees=yes

Units are S.I. units (second, meters, Newtons, ...)
If the header above contains a line with 'inDegrees', this indicates whether rotational values are in degrees (yes) or radians (no).

endheader
time	pelvis_tilt	pelvis_list	pelvis_rotation	pelvis_tx	pelvis_ty	pelvis_tz	hip_flexion_r	hip_adduction_r	hip_rotation_r	knee_angle_r	knee_angle_r_beta	ankle_angle_r	subtalar_angle_r	mtp_angle_r	hip_flexion_l	hip_adduction_l	hip_rotation_l	knee_angle_l	knee_angle_l_beta	ankle_angle_l	subtalar_angle_l	mtp_angle_l	L5_S1_Flex_Ext	L5_S1_Lat_Bending	L5_S1_axial_rotation	L4_L5_Flex_Ext	L4_L5_Lat_Bending	L4_L5_axial_rotation	L3_L4_Flex_Ext	L3_L4_Lat_Bending	L3_L4_axial_rotation	L2_L3_Flex_Ext	L2_L3_Lat_Bending	L2_L3_axial_rotation	L1_L2_Flex_Ext	L1_L2_Lat_Bending	L1_L2_axial_rotation	L1_T12_Flex_Ext	L1_T12_Lat_Bending	L1_T12_axial_rotation	Abs_r3	Abs_r2	Abs_r1	Abs_t1	Abs_t2	neck_flexion	neck_bending	neck_rotation	arm_flex_r	arm_add_r	arm_rot_r	elbow_flex_r	pro_sup_r	wrist_flex_r	wrist_dev_r	arm_flex_l	arm_add_l	arm_rot_l	elbow_flex_l	pro_sup_l	wrist_flex_l	wrist_dev_l
      0.00000000	      3.42335330	     -4.94640041	     95.98465530	      0.17411544	      0.64154216	      0.64343904	     10.50126418	      4.18485785	    -16.47130755	     11.70868647	      0.20435513	     30.10924526	     -9.67593205	      0.00000000	     12.63880736	     -5.15331896	     -4.27323163	     13.19826210	      0.23035313	     37.92718434	     15.56313479	      0.00000000	      0.11713997	      0.94310390	     -2.31313059	      0.21754063	      1.25432819	     -2.45770125	      0.19244925	      2.29306282	     -2.45770125	      0.13387927	      2.29306282	     -2.02398927	      0.10877617	      1.92317747	     -1.87941860	      0.06693378	      1.46086794	     -1.73484794	      0.83671907	     10.66857992	    -12.86493841	      0.00000000	      0.00000000	     27.27049079	     -2.22212504	      5.53205737	     17.63786401	     -7.45104084	     83.44764341	     38.99254258	     88.20113724	      2.65968041	      0.90973160	     11.36882662	     -2.49019292	     48.50598342	     39.39328185	     86.25250061	      7.65749173	      2.37832563
      0.01666667	      3.59008192	     -5.08532631	     95.52996951	      0.17377555	      0.64122560	      0.64160071	     10.67832109	      4.34706745	    -15.91666210	     11.85104801	      0.20683981	     29.84383021	    -10.06988742	      0.00000000	     12.52336763	     -5.30775867	     -4.65573355	     13.10142003	      0.22866292	     37.76492675	     14.73096845	      0.00000000	      0.14799763	      0.96544379	     -2.02820388	      0.27484639	      1.28404024	     -2.15496662	      0.24314530	      2.34738003	     -2.15496662	      0.16914649	      2.34738003	     -1.77467840	      0.13743060	      1.96873298	     -1.64791565	      0.08456584	      1.49547243	     -1.52115291	      1.05713226	     10.92129326	    -11.28026152	      0.00000000	      0.00000000	     27.47575920	     -2.42620262	      4.77401787	     14.43599449	     -8.11840073	     73.96670346	     39.09078041	     71.82593809	      6.36265708	      4.04898774	     11.98157466	     -1.84614764	     50.16394974	     38.70816068	     85.51030730	      6.98275428	      1.99941849
      0.03333333	      3.61459879	     -5.09290050	     95.22869938	      0.17354197	      0.64120584	      0.64032100	     10.71159275	      4.36875080	    -15.50959735	     11.96162849	      0.20876980	     29.71988276	    -10.32878846	      0.00000000	     12.34455621	     -5.30692912	     -4.80999078	     13.02475601	      0.22732488	     37.63742289	     14.08042083	      0.00000000	      0.15718544	      0.97061471	     -1.90734640	      0.29190909	      1.29091757	     -2.02655555	      0.25823996	      2.35995262	     -2.02655555	      0.17964724	      2.35995262	     -1.66892810	      0.14596240	      1.97927753	     -1.54971895	      0.08981576	      1.50348219	     -1.43050980	      1.12275990	     10.97978777	    -10.60808847	      0.00000000	      0.00000000	     27.52550706	     -2.28117049	      4.74369440	     14.23657098	     -8.36748270	     75.55476605	     39.56491134	     44.66720446	      4.23623308	      7.09516779	     12.19306740	     -1.52726718	     50.80384950	     38.36191644	     84.69941566	      6.45450112	      1.97038317
      0.05000000	      3.63952178	     -5.08966706	     95.17303761	      0.17314025	      0.64116348	      0.63927790	     10.69590379	      4.35859100	    -15.49295017	     11.99721023	      0.20939082	     29.74772024	    -10.33853267	      0.00000000	     12.24780313	     -5.29379762	     -4.92270160	     12.99163114	      0.22674674	     37.69705742	     13.94493988	      0.00000000	      0.16503031	      0.97372032	     -1.86103442	      0.30647778	      1.29504803	     -1.97734907	      0.27112829	      2.36750359	     -1.97734907	      0.18861314	      2.36750359	     -1.62840512	      0.15324714	      1.98561048	     -1.51209047	      0.09429832	      1.50829278	     -1.39577582	      1.17879498	     11.01491901	    -10.35051514	      0.00000000	      0.00000000	     27.57136532	     -2.18758912	      4.72030300	     14.37187437	     -8.32266879	     75.51460027	     39.25487843	     44.56999324	      4.11178806	      6.97971617	     12.19388298	     -1.24691128	     50.76384872	     38.10866196	     84.61232537	      6.34237809	      2.10757229
      0.06666667	      3.51012738	     -5.05743742	     94.68579073	      0.17309377	      0.64124272	      0.63836773	     10.69510449	      4.20199815	    -15.24411853	     12.17634828	      0.21251737	     29.98580792	     -9.78820461	      0.00000000	     11.94111647	     -5.08989540	     -4.56791967	     12.70994242	      0.22183034	     37.58409411	     12.82345913	      0.00000000	      0.16314616	      0.96433978	     -1.74491430	      0.30297874	      1.28257191	     -1.85397145	      0.26803283	      2.34469575	     -1.85397145	      0.18645975	      2.34469575	     -1.52680001	      0.15149753	      1.96648168	     -1.41774287	      0.09322172	      1.49376232	     -1.30868573	      1.16533674	     10.90880448	     -9.70468988	      0.00000000	      0.00000000	     27.56224518	     -2.11493579	      4.69203606	     14.89580862	     -8.32659609	     76.29486915	     38.73673666	     52.05973217	      4.27682976	      5.54115828	     12.26675128	     -1.07371968	     51.30306031	     37.92738258	     83.63518296	      5.75950282	      2.29373631
      0.08333333	      3.36107618	     -5.01060247	     94.28066906	      0.17321044	      0.64134307	      0.63757969	     10.62404648	      4.12570627	    -14.42978526	     12.18471560	      0.21266341	     30.02469198	    -10.14842242	      0.00000000	     11.69424794	     -4.95834321	     -4.94401960	     12.54408345	      0.21893556	     37.67450063	     12.84813815	      0.00000000	      0.15881930	      0.94994265	     -1.66609595	      0.29494333	      1.26342373	     -1.77022695	      0.26092423	      2.30969056	     -1.77022695	      0.18151458	      2.30969056	     -1.45783396	      0.14747961	      1.93712305	     -1.35370296	      0.09074935	      1.47146117	     -1.24957196	      1.13443040	     10.74594125	     -9.26632585	      0.00000000	      0.00000000	     27.53722971	     -1.98026285	      4.76809446	     15.49261187	     -8.19426637	     76.48192068	     38.24757403	     68.80426238	      4.16002302	      3.61430087	     12.21074958	     -0.96937854	     51.40450954	     37.81107637	     83.45227267	      5.56136163	      2.48712642
      0.10000000	      3.21515841	     -4.94413615	     94.08525839	      0.17315801	      0.64149386	      0.63694522	     10.51040784	      3.99513234	    -14.07422445	     12.17200966	      0.21244165	     30.26052296	     -9.96315203	      0.00000000	     11.47889483	     -4.76019747	     -4.72686790	     12.37799360	      0.21603674	     37.65551871	     12.34418091	      0.00000000	      0.15358557	      0.93474497	     -1.65033983	      0.28522376	      1.24321081	     -1.75348607	      0.25232573	      2.27273892	     -1.75348607	      0.17553295	      2.27273892	     -1.44404736	      0.14261956	      1.90613194	     -1.34090112	      0.08775880	      1.44791996	     -1.23775488	      1.09704637	     10.57402204	     -9.17869506	      0.00000000	      0.00000000	     27.51657373	     -1.80537420	      4.93210530	     16.30881677	     -8.01115237	     77.95664313	     38.04572817	     81.93130256	      2.83409515	      2.01744264	     12.12903330	     -0.92258074	     51.48186188	     37.70370839	     83.46408223	      5.45326723	      2.49941088
      0.11666667	      3.02883824	     -4.79845753	     94.01028537	      0.17298921	      0.64173698	      0.63655710	     10.30910775	      3.79006286	    -13.99882936	     12.17035465	      0.21241276	     30.60905699	     -9.45096049	      0.00000000	     11.23657205	     -4.52204101	     -4.51348371	     12.28395181	      0.21439540	     37.61354517	     11.94164606	      0.00000000	      0.13611761	      0.91355629	     -1.64470218	      0.25278402	      1.21502987	     -1.74749606	      0.22362763	      2.22122077	     -1.74749606	      0.15556882	      2.22122077	     -1.43911440	      0.12639881	      1.86292399	     -1.33632052	      0.07777760	      1.41509870	     -1.23352663	      0.97227449	     10.33433149	     -9.14734010	      0.00000000	      0.00000000	     27.48396990	     -1.76549760	      4.80726754	     17.02231783	     -7.90692039	     80.18155257	     38.06444109	     84.43729520	      1.40992917	      2.23500412	     12.36480917	     -1.00911225	     52.64451733	     37.48441426	     83.33222234	      5.05502367	      1.78898735
      0.13333333	      2.83599244	     -4.76857358	     93.88644841	      0.17298951	      0.64183677	      0.63590057	     10.18692938	      3.62066825	    -13.65654830	     12.11573567	      0.21145948	     30.83338140	     -9.27524614	      0.00000000	     11.05366683	     -4.29594252	     -4.49380040	     12.11205840	      0.21139530	     37.56154299	     11.70074202	      0.00000000	      0.14057436	      0.89146198	     -1.63072236	      0.26106065	      1.18564443	     -1.73264251	      0.23094962	      2.16750065	     -1.73264251	      0.16066244	      2.16750065	     -1.42688207	      0.13053735	      1.81786927	     -1.32496192	      0.08032419	      1.38087460	     -1.22304177	      1.00410862	     10.08439619	     -9.06958856	      0.00000000	      0.00000000	     27.46333563	     -1.66485575	      4.76583413	     16.80618713	     -7.86962405	     79.81245788	     38.00075826	     86.05056952	      1.11758356	      2.07362458	     12.21387693	     -0.94514273	     52.63648587	     37.31621603	     83.49616891	      5.34131884	      1.51618928
